<svg viewBox="0 0 260.689 65" xmlns="http://www.w3.org/2000/svg" xmlns:xlink="http://www.w3.org/1999/xlink" width="260.689453" height="65.000000" fill="none">
	<rect id="Layer_1" width="260.689545" height="65.000000" x="0.000000" y="0.000000" fill="rgb(255,255,255)" fill-opacity="0" />
	<path id="Vector" d="M52.7874 34.2057C52.7891 33.5641 52.646 32.9303 52.3688 32.3516C52.0916 31.7729 51.6874 31.2642 51.1864 30.8634L34.1592 17.2487L33.8904 15.0517C33.7835 14.0791 33.6117 13.1148 33.3762 12.1651C32.6416 8.84623 31.0866 5.76447 28.8536 3.20161C26.5163 0.630597 23.6882 -0.456232 21.047 0.16315C18.4059 0.782531 16.3724 3.01464 15.4492 6.42708C14.6072 9.71242 14.6072 13.157 15.4492 16.4424C15.6594 17.3434 15.9287 18.2296 16.2556 19.0952L1.55402 30.8634C0.677512 31.5746 0.118599 32.6042 -0.000275685 33.7266C-0.105938 34.655 0.0995842 35.5922 0.584047 36.3911L0.946328 36.8469L1.27355 37.2559C2.06385 38.0094 3.1149 38.4282 4.20684 38.4246L6.27534 38.4246L6.27534 59.9159C6.27842 61.2457 6.80724 62.5203 7.74645 63.4618C8.68566 64.4032 9.95905 64.9349 11.2888 64.9411L41.3581 64.9411C42.6889 64.935 43.9635 64.4036 44.9046 63.4625C45.8457 62.5214 46.3771 61.2468 46.3832 59.9159L46.3832 38.4246L48.4517 38.4246C49.0134 38.4323 49.5712 38.3293 50.0931 38.1214C50.615 37.9136 51.0908 37.605 51.4934 37.2132C51.896 36.8215 52.2175 36.3542 52.4396 35.8382C52.6616 35.3222 52.7798 34.7675 52.7874 34.2057ZM22.9986 13.7311L20.2757 15.9515C20.2757 15.7645 20.1939 15.5776 20.1355 15.3672C19.7481 13.8007 19.5751 12.1888 19.6213 10.5758C19.6213 10.3654 19.6213 10.2135 19.6213 10.1317C19.6764 9.36059 19.8095 8.59708 20.0186 7.85283C20.4744 6.21673 21.2457 5.16494 22.1222 4.9429C22.2465 4.93086 22.3718 4.93086 22.4961 4.9429C23.619 5.10549 24.6318 5.70639 25.3126 6.61405C26.9419 8.51069 28.0814 10.7778 28.6315 13.2169C27.7365 12.7747 26.7367 12.5886 25.7425 12.6794C24.7484 12.7701 23.7987 13.1341 22.9986 13.7311Z" fill="rgb(52,52,52)" fill-rule="nonzero" />
	<path id="Vector" d="M24.8687 54.0729L18.6982 54.0729L18.6982 48.0076L24.9154 48.0076L24.9154 54.0729L24.8687 54.0729ZM24.8687 38.7637L18.6982 38.7637L18.6982 44.8289L24.9154 44.8289L24.9154 38.7637L24.8687 38.7637ZM34.1244 48.0076L27.9072 48.0076L27.9072 54.0729L34.1127 54.0729L34.1127 48.0076L34.1244 48.0076ZM34.1244 38.7637L27.9072 38.7637L27.9072 44.8289L34.1127 44.8289L34.1127 38.7637L34.1244 38.7637Z" fill="rgb(255,255,255)" fill-rule="nonzero" />
	<path id="Vector" d="M51.1864 30.8634L34.1592 17.2487L33.8904 15.0517C33.7835 14.0791 33.6117 13.1148 33.3762 12.1651C32.6416 8.84623 31.0866 5.76447 28.8536 3.20161C26.5163 0.630597 23.6881 -0.456232 21.047 0.16315C18.4059 0.782531 16.3724 3.01464 15.4492 6.42708C14.6072 9.71242 14.6072 13.157 15.4492 16.4424C15.6594 17.3434 15.9287 18.2296 16.2556 19.0952L1.55402 30.8634C0.677512 31.5746 0.118599 32.6042 -0.000275688 33.7266C-0.105938 34.655 0.0995842 35.5922 0.584047 36.3911L0.946328 36.8469L1.27355 37.2559C2.06385 38.0094 3.1149 38.4282 4.20684 38.4246L6.27534 38.4246L6.27534 59.9159C6.27841 61.2457 6.80724 62.5203 7.74645 63.4618C8.68566 64.4032 9.95905 64.9349 11.2888 64.9411L41.3581 64.9411C42.6889 64.935 43.9635 64.4036 44.9046 63.4625C45.8457 62.5214 46.3771 61.2468 46.3832 59.9159L46.3832 38.4246L48.4517 38.4246C49.5841 38.4246 50.6703 37.9755 51.4721 37.1759C52.2739 36.3763 52.7259 35.2914 52.729 34.159C52.7308 33.5299 52.5934 32.9082 52.3267 32.3385C52.06 31.7687 51.6706 31.265 51.1864 30.8634ZM19.6329 10.0499C19.6881 9.27878 19.8212 8.51526 20.0303 7.77102C20.4861 6.13492 21.2574 5.08313 22.1339 4.86109C22.2582 4.84904 22.3835 4.84904 22.5078 4.86109C23.6307 5.02368 24.6434 5.6246 25.3242 6.53226C26.9536 8.42889 28.0931 10.696 28.6432 13.1351C27.7292 12.7086 26.7141 12.546 25.7126 12.6658C24.7111 12.7855 23.763 13.1829 22.9753 13.8129L20.2757 15.9515C20.2757 15.7645 20.1939 15.5776 20.1355 15.3672C19.7481 13.8007 19.5751 12.1888 19.6213 10.5758C19.6213 10.3654 19.6213 10.2135 19.6213 10.1317L19.6329 10.0499ZM44.0342 33.6915C43.4199 33.7092 42.8356 33.9611 42.4011 34.3957C41.9665 34.8302 41.7146 35.4145 41.697 36.0288L41.697 59.9159C41.697 59.9779 41.6723 60.0374 41.6285 60.0812C41.5847 60.125 41.5252 60.1497 41.4632 60.1497L11.3589 60.1497C11.3273 60.1513 11.2956 60.1464 11.2659 60.1353C11.2362 60.1243 11.209 60.1073 11.1861 60.0855C11.1631 60.0636 11.1448 60.0373 11.1324 60.0082C11.1199 59.979 11.1135 59.9476 11.1135 59.9159L11.1135 36.0172C11.0959 35.4028 10.844 34.8185 10.4094 34.384C9.97485 33.9494 9.39055 33.6975 8.77624 33.6799L5.84295 33.6799L18.5344 23.4659C18.9904 24.1401 19.4942 24.7806 20.042 25.3825C20.4506 25.8279 20.892 26.2419 21.3625 26.6213L21.4911 26.7264L21.4911 26.8082C21.4911 26.8783 21.4911 26.9835 21.4911 27.1121C21.4911 27.2406 21.4911 27.2757 21.4911 27.3692C21.4911 27.4627 21.5495 27.6263 21.5846 27.7782C21.636 27.9763 21.6985 28.1714 21.7716 28.3625C22.1409 29.2756 22.774 30.0578 23.5899 30.6094C24.4059 31.1611 25.3677 31.457 26.3527 31.4594C27.003 31.4635 27.6478 31.3385 28.2496 31.0918C28.8513 30.8451 29.3982 30.4814 29.8586 30.022C30.3212 29.5634 30.6876 29.0171 30.9365 28.4151C31.1853 27.8131 31.3115 27.1675 31.3077 26.5161C31.3109 25.8648 31.1843 25.2194 30.9356 24.6174C30.6868 24.0155 30.3207 23.4691 29.8586 23.0101C29.399 22.5496 28.8523 22.1854 28.2503 21.9386C27.6483 21.6917 27.0032 21.5674 26.3527 21.5727C25.3267 21.5713 24.3258 21.89 23.4895 22.4842C22.9711 21.8759 22.5022 21.2272 22.0871 20.5443L25.9787 17.4123C26.0864 17.3209 26.2231 17.2707 26.3643 17.2707C26.5056 17.2707 26.6423 17.3209 26.75 17.4123L47.026 33.6448L44.0342 33.6915Z" fill="rgb(48,141,255)" fill-rule="nonzero" />
	<path id="Vector" d="M101.356 61.3306C100.348 61.3387 99.3512 61.1106 98.4465 60.6645C97.5536 60.1923 96.8183 59.4692 96.3313 58.5843C95.7969 57.5491 95.5354 56.3947 95.5716 55.2303C95.5183 54.347 95.6897 53.4646 96.0698 52.6656C96.4499 51.8665 97.0264 51.1768 97.7453 50.6609C98.201 50.3553 98.6865 50.0969 99.1944 49.8896L96.9974 44.7709L97.7336 44.3853C98.805 43.8533 99.94 43.4606 101.111 43.2166C102.45 42.9532 103.813 42.824 105.178 42.831C107.124 42.7254 109.039 43.3459 110.554 44.5723C111.237 45.2017 111.772 45.9744 112.122 46.8351C112.472 47.6958 112.626 48.6231 112.575 49.5507L112.575 61.0268L107.328 61.0268L106.545 59.4725C106.308 59.7 106.058 59.9146 105.797 60.1152C105.211 60.5413 104.549 60.8508 103.846 61.0268C103.033 61.2375 102.196 61.3396 101.356 61.3306ZM104.932 53.8747C104.353 53.8393 103.774 53.9647 103.261 54.2369C103.165 54.3172 103.09 54.42 103.043 54.5362C102.996 54.6525 102.979 54.7785 102.993 54.9031C102.976 55.1057 103.03 55.3079 103.144 55.4757C103.311 55.6043 103.52 55.663 103.729 55.6393C104.159 55.6594 104.579 55.5081 104.897 55.2186C105.041 55.0919 105.154 54.935 105.228 54.7591C105.303 54.5832 105.338 54.3928 105.33 54.2019L105.33 53.863L104.932 53.8747ZM104.185 48.534C103.543 48.5494 102.906 48.6516 102.291 48.8378C101.635 49.0219 100.991 49.2483 100.363 49.5156C101.362 49.268 102.385 49.127 103.413 49.0949L105.201 49.0365C105.173 48.9393 105.121 48.8508 105.049 48.7794C104.801 48.5932 104.493 48.5057 104.185 48.534ZM65.7712 61.3891C63.8031 61.427 61.8549 60.9901 60.0916 60.1152C58.4095 59.2515 57.0403 57.8824 56.1766 56.2003C55.1929 54.1717 54.7233 51.9322 54.8093 49.6792C54.7602 47.5735 55.2255 45.4875 56.165 43.6023C57.0698 41.8674 58.4853 40.452 60.2201 39.5471C62.2053 38.5682 64.4002 38.0907 66.6126 38.1564C67.9196 38.1509 69.2237 38.2802 70.5042 38.5421C71.6115 38.7634 72.6926 39.1002 73.7297 39.5471L74.5127 39.886L72.0585 45.9746L71.2054 45.5539C70.5254 45.2164 69.8074 44.9614 69.0668 44.7943C68.2733 44.6126 67.4617 44.5224 66.6477 44.5255C65.7667 44.4787 64.8941 44.7163 64.1585 45.2033C63.5359 45.6706 63.0678 46.3137 62.8145 47.0498C62.5094 47.9487 62.3631 48.8938 62.3821 49.8428C62.3538 50.8498 62.5164 51.853 62.8613 52.7995C63.1132 53.4566 63.5571 54.0226 64.1351 54.4239C64.7698 54.8021 65.5003 54.9888 66.2387 54.9615C66.6292 54.9592 67.0193 54.9358 67.4073 54.8914L67.7228 54.8914L67.7228 53.2436L63.9481 53.2436L63.9481 47.1316L74.6997 47.1316L74.6997 59.8815L74.1153 60.0802C72.8651 60.4981 71.5832 60.8147 70.2822 61.0268C68.7891 61.2486 67.2806 61.3502 65.7712 61.3306L65.7712 61.3891ZM128.375 61.0969L128.375 43.1816L134.032 43.1816L134.639 45.0047C134.78 44.8527 134.92 44.7008 135.072 44.5606C135.602 44.079 136.206 43.6845 136.86 43.3919C137.547 43.0482 138.301 42.8569 139.069 42.831C139.429 42.8306 139.788 42.858 140.144 42.9128L140.915 43.018L141.71 43.1582L141.044 50.2519L140.039 49.9831C139.854 49.9433 139.666 49.9159 139.478 49.9013C139.09 49.856 138.699 49.8364 138.309 49.8428C137.98 49.8472 137.651 49.8784 137.327 49.9363C137.033 49.9855 136.751 50.0928 136.498 50.2519C136.258 50.4 136.067 50.6154 135.948 50.8713C135.763 51.2899 135.679 51.7463 135.703 52.2035L135.703 61.0268L128.375 61.0969ZM114.656 61.0969L114.656 43.1816L120.37 43.1816L120.978 45.0047C121.118 44.8527 121.258 44.7008 121.41 44.5606C121.939 44.0764 122.543 43.6817 123.198 43.3919C123.876 43.0925 124.608 42.9373 125.349 42.9362C125.709 42.9358 126.068 42.9631 126.424 43.018L127.195 43.1231L127.99 43.2634L127.312 50.3571L126.319 50.0883C126.134 50.0493 125.946 50.022 125.758 50.0065C125.37 49.9611 124.979 49.9416 124.589 49.948C124.26 49.9523 123.932 49.9836 123.607 50.0415C123.309 50.0913 123.023 50.1984 122.766 50.3571C122.533 50.5094 122.346 50.7239 122.228 50.9764C122.043 51.395 121.959 51.8515 121.983 52.3087L121.983 61.132L114.656 61.0969ZM87.0405 61.0969L87.0405 51.4088C87.0944 50.7276 86.9738 50.0438 86.6899 49.4221C86.6298 49.2938 86.5309 49.1876 86.4072 49.1185C86.2835 49.0493 86.1413 49.0206 86.0005 49.0365C85.8232 49.0214 85.6447 49.0427 85.4759 49.099C85.3071 49.1552 85.1516 49.2453 85.0188 49.3637C84.7042 49.7146 84.4973 50.1488 84.4228 50.6142C84.2643 51.4381 84.1899 52.2761 84.2007 53.1151L84.2007 61.0969L76.8733 61.0969L76.8733 37.1514L84.2007 37.1514L84.2007 41.1832C84.2007 42.235 84.2007 43.1582 84.1423 43.9412C84.6444 43.5761 85.2116 43.3104 85.8135 43.1582C86.4644 42.98 87.137 42.8935 87.8118 42.9011C88.9376 42.8868 90.052 43.1265 91.0724 43.6023C92.0821 44.079 92.9251 44.8487 93.4915 45.811C94.1232 46.9912 94.4297 48.3182 94.3796 49.6559L94.3796 61.0385L87.0405 61.0969Z" fill="rgb(52,52,52)" fill-rule="nonzero" />
	<path id="Vector" d="M83.3243 37.9696L83.3243 41.125C83.3243 42.2936 83.3243 43.322 83.2425 44.1401C83.1607 44.9581 83.149 45.5658 83.1023 45.9982L83.3594 45.9982C83.665 45.4836 84.0608 45.0284 84.528 44.6543C84.9767 44.3307 85.4792 44.0893 86.0122 43.9414C86.5915 43.7871 87.1891 43.7124 87.7885 43.7194C88.7804 43.7022 89.7633 43.91 90.6634 44.3271C91.5354 44.7408 92.258 45.4144 92.7319 46.2553C93.2891 47.2993 93.5555 48.4739 93.5032 49.6561L93.5032 60.1739L87.8937 60.1739L87.8937 51.3623C87.945 50.5256 87.7842 49.6895 87.4262 48.9315C87.2871 48.6718 87.077 48.4571 86.8204 48.3122C86.5638 48.1674 86.2714 48.0985 85.9771 48.1135C85.6844 48.0952 85.391 48.1377 85.1155 48.2382C84.84 48.3388 84.5882 48.4953 84.3761 48.6978C83.9406 49.1653 83.6521 49.7505 83.5463 50.3806C83.3675 51.2651 83.2852 52.1663 83.3009 53.0685L83.3009 60.1739L77.7499 60.1739L77.7499 37.9696L83.3243 37.9696ZM66.6127 39.0097C67.861 39.0061 69.1064 39.1314 70.329 39.3837C71.3743 39.5929 72.3961 39.9061 73.3791 40.3186L71.5911 44.7478C70.8496 44.3749 70.0645 44.0961 69.2538 43.918C68.399 43.7221 67.5247 43.6241 66.6477 43.6259C65.5782 43.5732 64.5203 43.8684 63.6326 44.4673C62.8764 45.0409 62.3071 45.8258 61.9965 46.7228C61.6448 47.7244 61.4785 48.7818 61.5057 49.8431C61.473 50.962 61.6555 52.0768 62.0433 53.1269C62.3659 53.9474 62.9278 54.6518 63.656 55.1487C64.4314 55.625 65.3291 55.8647 66.2387 55.8382C66.5776 55.8382 66.975 55.8382 67.4074 55.7681C67.7777 55.7401 68.1452 55.6814 68.5059 55.5928L68.5059 52.3323L64.8247 52.3323L64.8247 47.9732L73.8232 47.9732L73.8232 59.1922C72.6199 59.5986 71.3846 59.9035 70.1303 60.1038C68.6896 60.3417 67.2315 60.459 65.7713 60.4544C63.9425 60.4918 62.1313 60.0911 60.489 59.2857C58.9908 58.5011 57.7677 57.278 56.9831 55.7798C56.0796 53.8935 55.6466 51.8164 55.7209 49.7262C55.6515 47.7467 56.0689 45.7805 56.9363 43.9998C57.7616 42.4209 59.0503 41.1322 60.6292 40.3069C62.4869 39.3895 64.5419 38.944 66.6127 39.0097ZM138.987 43.6843C139.307 43.6857 139.628 43.7092 139.945 43.7544L140.681 43.8479L140.237 49.1536C140.01 49.1001 139.78 49.0611 139.548 49.0367C139.16 48.9953 138.77 48.9758 138.379 48.9783C137.987 48.9779 137.596 49.0131 137.211 49.0834C136.797 49.1449 136.4 49.2879 136.042 49.5042C135.667 49.7423 135.364 50.0775 135.165 50.4741C134.918 51.0202 134.802 51.6165 134.826 52.2154L134.826 60.1622L129.252 60.1622L129.252 43.9998L133.401 43.9998L134.277 46.5826L134.546 46.5826C134.855 46.0435 135.25 45.5581 135.715 45.1451C136.169 44.7121 136.695 44.3603 137.269 44.105C137.831 43.8525 138.44 43.7211 139.057 43.7194M125.337 43.7194C125.654 43.7203 125.97 43.7438 126.284 43.7895L127.032 43.883L126.529 49.1536C126.298 49.0993 126.064 49.0602 125.828 49.0367C125.44 48.9945 125.05 48.9749 124.659 48.9783C124.267 48.9786 123.876 49.0138 123.491 49.0834C123.077 49.1455 122.68 49.2884 122.322 49.5042C121.943 49.7375 121.639 50.074 121.445 50.4741C121.198 51.0202 121.082 51.6165 121.107 52.2154L121.107 60.1622L115.532 60.1622L115.532 43.9998L119.681 43.9998L120.546 46.5826L120.814 46.5826C121.128 46.0466 121.522 45.5618 121.983 45.1451C122.438 44.7121 122.964 44.3603 123.537 44.105C124.099 43.8514 124.709 43.72 125.325 43.7194M105.248 43.7194C106.978 43.6162 108.685 44.1574 110.04 45.2386C110.63 45.7866 111.091 46.4587 111.39 47.2064C111.689 47.9541 111.818 48.7588 111.769 49.5626L111.769 60.1622L107.866 60.1622L106.791 58.0236L106.686 58.0236C106.275 58.5482 105.799 59.0193 105.271 59.4259C104.776 59.7844 104.217 60.0461 103.624 60.1972C102.882 60.3805 102.12 60.4669 101.356 60.4544C100.489 60.4645 99.632 60.2682 98.8556 59.8817C98.1071 59.4954 97.4922 58.8927 97.0909 58.1521C96.6352 57.2475 96.4141 56.2429 96.4482 55.2305C96.398 54.488 96.5368 53.7449 96.8515 53.0705C97.1662 52.3961 97.6466 51.8125 98.2479 51.374C99.8221 50.432 101.626 49.9427 103.46 49.9599L106.16 49.8781L106.16 49.6561C106.188 49.3743 106.153 49.0899 106.058 48.8232C105.963 48.5564 105.81 48.3141 105.61 48.1135C105.207 47.7929 104.7 47.6308 104.185 47.6577C103.459 47.6683 102.739 47.7824 102.046 47.9966C101.247 48.2243 100.466 48.5094 99.7087 48.8497L98.0843 45.1685C99.0882 44.6727 100.153 44.3112 101.251 44.0933C102.555 43.8281 103.883 43.7027 105.213 43.7194M103.729 56.5744C104.366 56.585 104.983 56.3555 105.458 55.9317C105.695 55.7237 105.882 55.466 106.008 55.1771C106.133 54.8882 106.193 54.5752 106.183 54.2605L106.183 53.0101L104.897 53.0101C104.139 52.9769 103.387 53.1679 102.735 53.5593C102.53 53.7181 102.366 53.9245 102.258 54.1607C102.151 54.3969 102.102 54.6557 102.116 54.915C102.107 55.1297 102.142 55.3439 102.218 55.5448C102.295 55.7457 102.411 55.929 102.56 56.0836C102.889 56.3521 103.305 56.4894 103.729 56.4693M85.0305 36.1699L75.9618 36.1699L75.9618 61.8801L85.0773 61.8801L85.0773 53.0218C85.06 52.2373 85.1305 51.4533 85.2876 50.6845C85.317 50.3878 85.4351 50.1068 85.6265 49.8781C85.7211 49.81 85.8382 49.7807 85.9538 49.7963C86.1255 50.2753 86.1971 50.7844 86.1641 51.2922L86.1641 61.81L95.2795 61.81L95.2795 58.3041C95.3589 58.5053 95.4526 58.7006 95.56 58.8884C96.1237 59.9326 96.9919 60.7804 98.0492 61.3192C99.0731 61.8398 100.208 62.1044 101.356 62.0904C102.283 62.1085 103.207 61.9983 104.103 61.7632C104.879 61.5637 105.612 61.223 106.265 60.7582L106.265 60.8283L106.744 61.7983L113.452 61.7983L113.452 49.4457C113.504 48.3923 113.321 47.3404 112.917 46.3662C112.513 45.3921 111.897 44.5199 111.115 43.8128C109.433 42.4837 107.317 41.8258 105.178 41.9664C103.726 41.9552 102.278 42.0922 100.854 42.3754C99.6007 42.6266 98.3864 43.0432 97.2429 43.6142L95.7821 44.3621L96.4365 45.8697L98.0025 49.4574C97.7295 49.6033 97.4642 49.7632 97.2078 49.9366C96.3555 50.5254 95.6774 51.3327 95.2445 52.2738L95.2445 49.621C95.3002 48.1257 94.9488 46.6433 94.2278 45.3321C93.578 44.1884 92.59 43.2739 91.3996 42.7143C90.2678 42.1796 89.0284 41.9117 87.7768 41.9313C87.019 41.9243 86.2638 42.0226 85.533 42.2235L85.0305 42.3754C85.0305 41.9664 85.0305 41.5457 85.0305 41.0899L85.0305 36.1816L85.0305 36.1699ZM66.6127 37.2568C64.2474 37.1942 61.9032 37.716 59.7878 38.776C57.8932 39.7646 56.3473 41.3105 55.3586 43.2052C54.3581 45.214 53.8608 47.4358 53.9095 49.6794C53.8324 52.0558 54.338 54.415 55.382 56.5511C56.3321 58.387 57.8259 59.8849 59.6592 60.84C61.5513 61.7731 63.6385 62.2418 65.7479 62.2073C67.3137 62.2107 68.8771 62.0857 70.4225 61.8333C71.7718 61.6167 73.1009 61.2883 74.3959 60.8517L75.5645 60.4427L75.5645 46.1969L72.9234 46.1969L73.2389 45.4022L75.0269 40.973L75.658 39.3954L74.1037 38.7176C73.0137 38.25 71.8778 37.8975 70.7146 37.6658C69.3728 37.3898 68.006 37.2527 66.6361 37.2568L66.6127 37.2568ZM64.2754 46.1969C64.385 46.0796 64.5064 45.9738 64.6377 45.8814C65.2228 45.511 65.9099 45.3352 66.601 45.3788C67.3443 45.3737 68.0857 45.4561 68.8097 45.6243C69.4007 45.755 69.9764 45.9469 70.5276 46.1969L64.3455 46.1969L64.2754 46.1969ZM139.069 41.9664C138.21 41.9645 137.361 42.1479 136.579 42.504C136.051 42.734 135.552 43.0284 135.095 43.3805L134.721 42.2118L127.78 42.2118L127.289 42.13L126.436 42.0131C126.049 41.9548 125.658 41.9274 125.267 41.9313C124.405 41.9307 123.552 42.114 122.766 42.4689C122.242 42.7015 121.748 42.9957 121.294 43.3454L120.92 42.1768L113.779 42.1768L113.779 61.845L122.86 61.845L122.86 52.1803C122.845 51.8711 122.888 51.5618 122.988 51.2688C123.043 51.1582 123.118 51.059 123.21 50.9766C123.375 50.8769 123.558 50.8095 123.748 50.778C124.025 50.724 124.307 50.6966 124.589 50.6962C124.908 50.6707 125.229 50.6707 125.547 50.6962L126.038 50.7663L127.499 51.1519L127.499 61.8333L136.579 61.8333L136.579 52.1803C136.557 51.8698 136.605 51.5582 136.72 51.2688C136.77 51.1556 136.846 51.0557 136.942 50.9766C137.102 50.8753 137.281 50.8077 137.468 50.778C137.745 50.724 138.027 50.6966 138.309 50.6962C138.632 50.6704 138.956 50.6704 139.279 50.6962L139.758 50.7663L141.757 51.2922L141.955 49.2354L142.446 43.9765L142.598 42.3637L141.009 42.0833L140.167 41.9664C139.78 41.9087 139.39 41.8813 138.999 41.8846L139.069 41.9664Z" fill="rgb(255,255,255)" fill-rule="nonzero" />
	<path id="Vector" d="M166.053 61.3303C164.859 61.3334 163.673 61.1318 162.547 60.7343C161.479 60.3285 160.507 59.7035 159.695 58.8995C158.847 58.0694 158.189 57.0645 157.767 55.9545C157.319 54.7028 157.102 53.3804 157.124 52.0512C157.075 50.3405 157.444 48.6436 158.2 47.1079C158.904 45.7492 160.004 44.6365 161.355 43.9174C162.832 43.1731 164.469 42.8038 166.123 42.8423C167.704 42.8182 169.266 43.1877 170.669 43.9174C172.021 44.6363 173.131 45.738 173.859 47.0845C174.666 48.6133 175.069 50.3231 175.028 52.0512C175.044 53.3694 174.839 54.6811 174.42 55.9311C174.041 57.041 173.422 58.0542 172.609 58.8995C171.792 59.7085 170.812 60.334 169.734 60.7343C168.551 61.1442 167.305 61.3459 166.053 61.3303ZM166.053 48.744C165.834 48.7232 165.615 48.769 165.423 48.8753C165.231 48.9817 165.076 49.1437 164.978 49.34C164.629 50.1993 164.478 51.1257 164.534 52.0512C164.52 52.766 164.591 53.4799 164.744 54.1782C164.821 54.5594 165.003 54.9115 165.27 55.1949C165.499 55.3741 165.786 55.4616 166.076 55.4403C166.359 55.4627 166.64 55.3747 166.859 55.1949C167.114 54.908 167.284 54.556 167.35 54.1782C167.513 53.4814 167.588 52.7667 167.572 52.0512C167.59 51.3472 167.516 50.6438 167.35 49.9594C167.29 49.5932 167.119 49.2544 166.859 48.9894C166.64 48.8183 166.366 48.7313 166.088 48.744L166.053 48.744ZM176.465 61.0381L176.465 43.1228L182.122 43.1228L182.741 44.9459C182.872 44.7894 183.013 44.6411 183.162 44.5018C183.696 44.0199 184.304 43.6255 184.961 43.3331C185.635 43.034 186.363 42.8788 187.1 42.8774C187.46 42.877 187.819 42.9043 188.175 42.9592L188.947 43.0643L189.753 43.2046L189.075 50.2983L188.082 50.0295C187.893 49.9906 187.701 49.9633 187.509 49.9477C187.141 49.9051 186.77 49.8856 186.399 49.8892C186.07 49.8935 185.741 49.9248 185.417 49.9827C185.122 50.0319 184.84 50.1392 184.588 50.2983C184.348 50.4464 184.157 50.6618 184.038 50.9176C183.853 51.3362 183.769 51.7927 183.793 52.2499L183.793 61.0732L176.465 61.0381ZM142.411 61.0381L142.411 38.4365L156.435 38.4365L156.435 44.7121L149.657 44.7121L149.657 46.9326L155.909 46.9326L155.909 53.2082L149.727 53.2082L149.727 61.0381L142.411 61.0381Z" fill="rgb(48,141,255)" fill-rule="nonzero" />
	<path id="Vector" d="M155.628 39.3248L155.628 43.8474L148.85 43.8474L148.85 47.8208L155.102 47.8208L155.102 52.3435L148.85 52.3435L148.85 60.1734L143.299 60.1734L143.299 39.3248L155.628 39.3248ZM187.111 43.7306C187.432 43.732 187.752 43.7554 188.07 43.8007L188.806 43.8942L188.315 49.1648C188.084 49.1124 187.85 49.0734 187.614 49.0479C187.226 49.0065 186.836 48.987 186.445 48.9895C186.053 48.9891 185.662 49.0243 185.277 49.0947C184.864 49.1581 184.467 49.301 184.108 49.5154C183.734 49.7504 183.434 50.0868 183.243 50.4853C182.986 51.0284 182.866 51.6263 182.893 52.2266L182.893 60.1734L177.318 60.1734L177.318 43.9994L181.467 43.9994L182.343 46.5821L182.612 46.5821C182.922 46.043 183.316 45.5576 183.781 45.1446C184.238 44.7141 184.763 44.3626 185.335 44.1045C185.897 43.852 186.507 43.7206 187.123 43.7189M166.158 43.7189C167.596 43.6901 169.019 44.0237 170.295 44.6889C171.496 45.3352 172.483 46.3181 173.134 47.517C173.865 48.9138 174.224 50.4756 174.174 52.0513C174.195 53.2706 174.005 54.4843 173.613 55.6391C173.277 56.6276 172.726 57.5295 172.001 58.2802C171.284 59.0058 170.413 59.561 169.453 59.9046C168.364 60.2835 167.217 60.4694 166.064 60.4539C164.965 60.4638 163.873 60.2778 162.839 59.9046C161.888 59.5493 161.023 58.9955 160.303 58.2802C159.557 57.5482 158.979 56.663 158.608 55.6858C158.202 54.534 158.004 53.3191 158.024 52.0981C157.976 50.5305 158.309 48.9747 158.994 47.5637C159.615 46.3587 160.59 45.3721 161.787 44.7356C163.137 44.0549 164.635 43.7215 166.146 43.7656M166.146 56.3636C166.656 56.3895 167.156 56.2131 167.537 55.8728C167.914 55.4735 168.169 54.9748 168.273 54.4353C168.45 53.6693 168.533 52.8843 168.518 52.0981C168.536 51.3117 168.454 50.5262 168.273 49.7608C168.167 49.2275 167.902 48.7387 167.513 48.3584C167.127 48.0287 166.629 47.8612 166.122 47.8909C165.746 47.8691 165.371 47.9568 165.044 48.1435C164.716 48.3302 164.449 48.6077 164.276 48.9427C163.858 49.9317 163.671 51.0026 163.727 52.0747C163.715 52.8602 163.793 53.6445 163.96 54.412C164.075 54.9549 164.343 55.4536 164.732 55.8494C165.124 56.1858 165.629 56.3612 166.146 56.3402M157.416 37.6419L141.546 37.6419L141.546 61.9965L150.603 61.9965L150.603 54.1666L156.446 54.1666C156.555 54.909 156.743 55.6376 157.007 56.3402C157.461 57.5687 158.174 58.6849 159.099 59.6124C159.994 60.4558 161.052 61.1079 162.208 61.529C163.439 61.9797 164.741 62.2054 166.052 62.1952C167.409 62.2062 168.758 61.9808 170.037 61.529C171.245 61.096 172.339 60.397 173.24 59.4839C174.143 58.5506 174.829 57.4293 175.25 56.2C175.391 55.8183 175.508 55.428 175.6 55.0314L175.6 61.9264L184.646 61.9264L184.646 52.1799C184.621 51.8693 184.669 51.5572 184.786 51.2683C184.836 51.1552 184.912 51.0552 185.008 50.9762C185.168 50.8748 185.347 50.8072 185.534 50.7775C185.811 50.7241 186.093 50.6967 186.375 50.6957C186.698 50.6723 187.022 50.6723 187.345 50.6957L187.836 50.7658L189.823 51.2917L190.021 49.2349L190.524 43.976L190.676 42.3633L189.075 42.0828L188.233 41.9659C187.846 41.9082 187.456 41.8808 187.065 41.8841C186.206 41.8822 185.357 42.0656 184.575 42.4217C184.051 42.6543 183.557 42.9485 183.103 43.2982L182.717 42.1295L175.553 42.1295L175.553 49.0479C175.358 48.1682 175.035 47.3217 174.595 46.5353C173.796 45.0479 172.577 43.8286 171.089 43.0294C169.561 42.2321 167.858 41.8303 166.134 41.8607C164.339 41.8213 162.561 42.2225 160.957 43.0294C159.464 43.8211 158.243 45.0424 157.451 46.5353C157.213 46.9889 157.013 47.4619 156.855 47.9494L156.855 45.9043L150.603 45.9043L150.603 45.4368L157.381 45.4368L157.381 37.4082L157.416 37.6419ZM166.111 54.5172C166.031 54.5415 165.945 54.5415 165.865 54.5172C165.749 54.3442 165.67 54.1493 165.632 53.9445C165.491 53.3237 165.428 52.6877 165.445 52.0513C165.385 51.2558 165.505 50.457 165.795 49.714C165.795 49.6205 165.865 49.5972 166.087 49.5972C166.165 49.5847 166.244 49.5847 166.321 49.5972C166.432 49.7492 166.504 49.9255 166.532 50.1114C166.676 50.7317 166.743 51.3677 166.73 52.0046C166.74 52.6446 166.678 53.2836 166.543 53.9095C166.508 54.1263 166.42 54.331 166.286 54.5055L166.111 54.5055L166.111 54.5172Z" fill="rgb(255,255,255)" fill-rule="nonzero" />
	<path id="Vector" d="M193.422 61.4002C192.471 61.424 191.537 61.1413 190.758 60.5939C190.334 60.2689 189.997 59.8434 189.779 59.3557C189.561 58.868 189.467 58.3336 189.508 57.8008C189.461 57.2577 189.552 56.7115 189.773 56.2131C189.993 55.7146 190.336 55.2799 190.77 54.9493C191.553 54.4253 192.48 54.156 193.422 54.178C194.334 54.1677 195.227 54.4368 195.982 54.9493C196.409 55.2846 196.745 55.7208 196.961 56.2185C197.178 56.7163 197.267 57.26 197.221 57.8008C197.26 58.3296 197.169 58.86 196.955 59.3451C196.741 59.8302 196.411 60.2551 195.993 60.5822C195.248 61.1259 194.345 61.4129 193.422 61.4002Z" fill="rgb(52,52,52)" fill-rule="nonzero" />
	<path id="Vector" d="M193.423 55.0547C194.152 55.0433 194.867 55.2598 195.468 55.6741C195.78 55.9273 196.023 56.2546 196.176 56.6261C196.329 56.9976 196.387 57.4015 196.344 57.801C196.379 58.193 196.318 58.5875 196.165 58.9502C196.012 59.3128 195.773 59.6325 195.468 59.8812C194.873 60.3111 194.156 60.5366 193.423 60.5239C192.652 60.5404 191.897 60.3157 191.261 59.8812C190.956 59.6325 190.716 59.3128 190.563 58.9502C190.411 58.5875 190.349 58.193 190.384 57.801C190.341 57.4015 190.399 56.9976 190.552 56.6261C190.705 56.2546 190.949 55.9273 191.261 55.6741C191.901 55.252 192.656 55.0359 193.423 55.0547ZM193.423 53.3017C192.305 53.281 191.208 53.6032 190.279 54.2249C189.723 54.632 189.28 55.1739 188.992 55.7996C188.704 56.4252 188.579 57.114 188.631 57.801C188.585 58.4725 188.707 59.1448 188.987 59.757C189.267 60.3692 189.695 60.902 190.232 61.3069C191.163 61.9674 192.281 62.3115 193.423 62.2886C194.53 62.3021 195.612 61.9578 196.508 61.3069C197.039 60.8972 197.462 60.3632 197.739 59.752C198.016 59.1407 198.139 58.4708 198.097 57.801C198.149 57.1193 198.028 56.4356 197.746 55.8128C197.464 55.19 197.03 54.648 196.484 54.2366C195.587 53.6115 194.516 53.2844 193.423 53.3017Z" fill="rgb(255,255,255)" fill-rule="nonzero" />
	<path id="Vector" d="M205.319 61.3304C204.445 61.3365 203.57 61.2897 202.701 61.1902C201.974 61.1022 201.254 60.9536 200.551 60.7461C199.852 60.5181 199.169 60.2448 198.506 59.9281L198.003 59.6943L198.003 52.6825L199.277 53.3252C200.314 53.8493 201.403 54.2644 202.526 54.564C203.471 54.8252 204.444 54.9665 205.424 54.9847C205.784 54.997 206.143 54.9496 206.488 54.8445C206.647 54.8012 206.789 54.7117 206.897 54.5874C206.951 54.504 206.98 54.4064 206.979 54.3069C206.981 54.2544 206.972 54.2019 206.952 54.1533C206.932 54.1048 206.901 54.0614 206.862 54.0264C206.574 53.7544 206.242 53.5331 205.88 53.372C205.331 53.1032 204.618 52.7643 203.73 52.3669C202.842 51.9696 202.187 51.5956 201.533 51.1983C200.873 50.7992 200.272 50.3116 199.745 49.7492C199.236 49.1512 198.841 48.4663 198.576 47.7274C198.29 46.8807 198.152 45.9914 198.167 45.098C198.127 43.7124 198.537 42.3512 199.336 41.2181C200.139 40.1496 201.235 39.3376 202.491 38.8808C203.888 38.3754 205.365 38.1299 206.85 38.1562C208.167 38.1403 209.481 38.3055 210.753 38.647C211.8 38.9303 212.824 39.2936 213.815 39.7339L214.575 40.0728L212.238 46.0679L211.396 45.6823C210.589 45.307 209.753 44.9982 208.895 44.759C208.187 44.5428 207.451 44.4287 206.71 44.4202C206.413 44.4131 206.118 44.4525 205.833 44.537C205.718 44.5739 205.614 44.6381 205.529 44.724C205.517 44.7739 205.517 44.826 205.529 44.8759C205.53 44.9274 205.542 44.9782 205.564 45.0247C205.586 45.0711 205.618 45.1121 205.658 45.1447C205.97 45.4162 206.321 45.6406 206.698 45.8108C207.271 46.103 208.077 46.477 209.106 46.9795C210.076 47.4028 210.997 47.9319 211.852 48.5571C212.647 49.1267 213.293 49.8806 213.733 50.7542C214.203 51.7257 214.431 52.796 214.4 53.8745C214.399 55.1573 214.065 56.418 213.43 57.5323C212.715 58.7422 211.663 59.717 210.403 60.3371C208.813 61.0722 207.069 61.4129 205.319 61.3304Z" fill="rgb(52,52,52)" fill-rule="nonzero" />
	<path id="Vector" d="M206.85 39.0089C208.088 38.9936 209.323 39.147 210.52 39.4646C211.521 39.7394 212.502 40.0871 213.453 40.5047L211.723 44.8521C210.873 44.461 209.994 44.1367 209.094 43.8821C208.308 43.6502 207.494 43.5283 206.675 43.5198C206.277 43.5087 205.881 43.5722 205.506 43.7068C205.236 43.7918 204.996 43.9543 204.817 44.1743C204.678 44.3729 204.604 44.6098 204.606 44.8521C204.604 45.0163 204.635 45.1792 204.7 45.3302C204.764 45.4812 204.86 45.617 204.98 45.7286C205.356 46.071 205.782 46.3547 206.242 46.57L208.685 47.7386C209.602 48.1352 210.472 48.633 211.279 49.2228C211.966 49.7135 212.523 50.363 212.904 51.116C213.311 51.9643 213.507 52.8985 213.476 53.839C213.479 54.9703 213.185 56.0825 212.623 57.0644C211.992 58.124 211.066 58.9768 209.959 59.5186C208.5 60.2064 206.896 60.5312 205.284 60.4652C204.445 60.4693 203.606 60.4264 202.772 60.3366C202.094 60.2565 201.425 60.1157 200.773 59.9159C200.114 59.7014 199.47 59.4438 198.845 59.1446L198.845 54.1311C199.938 54.6855 201.085 55.1242 202.269 55.44C203.287 55.7155 204.335 55.8646 205.389 55.8841C205.884 55.9056 206.379 55.8383 206.85 55.6854C207.16 55.5787 207.435 55.3887 207.645 55.1362C207.817 54.9033 207.908 54.6196 207.902 54.3298C207.908 54.1589 207.877 53.9887 207.81 53.8312C207.744 53.6737 207.643 53.5327 207.516 53.4183C207.173 53.0882 206.778 52.8159 206.348 52.6119C205.798 52.3431 205.074 51.9925 204.174 51.5835C203.453 51.2518 202.751 50.8812 202.07 50.4733C201.478 50.1183 200.939 49.6816 200.469 49.1761C200.025 48.6704 199.684 48.0829 199.464 47.4465C199.204 46.6955 199.081 45.9037 199.102 45.1092C199.06 43.9094 199.409 42.7285 200.095 41.7435C200.792 40.8035 201.752 40.0917 202.853 39.6984C204.169 39.2132 205.565 38.9793 206.967 39.0089M206.967 37.2559C205.372 37.2359 203.788 37.5092 202.292 38.0623C200.891 38.5877 199.673 39.5094 198.786 40.7151C197.803 41.9911 197.269 43.5565 197.267 45.1676C197.253 46.1612 197.411 47.1496 197.735 48.0892C198.027 48.9479 198.484 49.7417 199.079 50.4265C199.666 51.0617 200.338 51.6123 201.077 52.0626C201.811 52.4923 202.568 52.8824 203.344 53.2313L205.378 54.1896C204.485 54.1613 203.599 54.0319 202.736 53.8039C201.679 53.5202 200.653 53.1286 199.675 52.6353L197.127 51.3498L197.127 60.3366L198.132 60.8041C198.825 61.1356 199.54 61.4206 200.271 61.6572C201.035 61.8854 201.817 62.0495 202.608 62.148C203.512 62.2473 204.421 62.2941 205.331 62.2883C207.218 62.3452 209.09 61.9442 210.788 61.1196C212.2 60.4282 213.375 59.3344 214.166 57.976C214.881 56.7315 215.255 55.3209 215.253 53.8857C215.281 52.6721 215.016 51.4696 214.481 50.3798C213.983 49.3842 213.249 48.5256 212.343 47.8789C211.432 47.2175 210.453 46.6571 209.421 46.2077L207.832 45.4598C208.108 45.5108 208.381 45.5771 208.65 45.6585C209.473 45.8797 210.274 46.173 211.046 46.5349L212.728 47.3063L213.406 45.5883L215.136 41.2293L215.743 39.675L214.224 38.9855C213.191 38.5178 212.125 38.1272 211.034 37.8169C209.686 37.4522 208.293 37.2753 206.897 37.291L206.967 37.2559Z" fill="rgb(255,255,255)" fill-rule="nonzero" />
	<path id="Vector" d="M220.418 61.3186C219.41 61.3295 218.414 61.1054 217.508 60.6642C216.61 60.1988 215.873 59.474 215.393 58.584C214.862 57.5474 214.601 56.394 214.633 55.23C214.582 54.347 214.755 53.4654 215.134 52.6667C215.514 51.868 216.09 51.178 216.807 50.6606C217.257 50.3461 217.744 50.0871 218.256 49.8893L216.012 44.7706L216.737 44.3966C217.811 43.8507 218.955 43.4573 220.138 43.228C221.5 42.9562 222.886 42.827 224.275 42.8423C226.221 42.7334 228.138 43.3543 229.65 44.5836C230.336 45.2115 230.873 45.984 231.222 46.845C231.572 47.7061 231.726 48.6342 231.672 49.562L231.672 61.0381L226.39 61.0381L225.607 59.4838C225.372 59.7142 225.122 59.9289 224.859 60.1266C224.271 60.5577 223.604 60.8675 222.896 61.0381C222.087 61.245 221.253 61.3393 220.418 61.3186ZM223.994 53.8743C223.421 53.8269 222.847 53.9531 222.346 54.2366C222.242 54.3112 222.16 54.4124 222.109 54.5296C222.058 54.6468 222.039 54.7757 222.054 54.9027C222.031 55.1114 222.089 55.321 222.218 55.4871C222.386 55.6018 222.588 55.6554 222.79 55.639C223.003 55.6496 223.216 55.6179 223.417 55.5457C223.617 55.4734 223.802 55.3622 223.959 55.2183C224.104 55.0927 224.218 54.9359 224.292 54.7598C224.367 54.5836 224.401 54.3927 224.391 54.2016L224.391 53.8627L223.994 53.8743ZM223.246 48.5219C222.603 48.5369 221.966 48.6432 221.353 48.8375C220.717 49.0158 220.092 49.2344 219.483 49.4919C220.469 49.258 221.475 49.1211 222.487 49.0829L224.251 49.0829C224.232 48.9883 224.183 48.9024 224.111 48.8375C223.992 48.7246 223.85 48.6381 223.695 48.5838C223.54 48.5294 223.375 48.5083 223.211 48.5219L223.246 48.5219Z" fill="rgb(52,52,52)" fill-rule="nonzero" />
	<path id="Vector" d="M224.275 43.7192C226.005 43.616 227.711 44.1573 229.066 45.2384C229.657 45.7854 230.119 46.4573 230.419 47.2053C230.718 47.9532 230.847 48.7584 230.796 49.5624L230.796 60.162L226.927 60.162L225.852 58.0234L225.747 58.0234C225.336 58.548 224.861 59.0192 224.333 59.4257C223.839 59.7841 223.279 60.0422 222.685 60.1854C221.945 60.3743 221.182 60.4608 220.418 60.4425C219.548 60.455 218.687 60.2628 217.905 59.8815C217.163 59.4916 216.552 58.8895 216.152 58.1519C215.697 57.2473 215.476 56.2427 215.51 55.2303C215.46 54.4878 215.598 53.7447 215.913 53.0703C216.228 52.396 216.708 51.8123 217.309 51.3738C218.881 50.4261 220.686 49.9364 222.522 49.9597L225.209 49.8779L225.209 49.6442C225.24 49.3651 225.207 49.0827 225.114 48.8178C225.021 48.5529 224.87 48.3122 224.672 48.1133C224.272 47.7835 223.763 47.6165 223.246 47.6458C222.52 47.6608 221.8 47.7789 221.108 47.9964C220.307 48.2189 219.526 48.5042 218.77 48.8495L217.146 45.1683C218.147 44.6635 219.213 44.2979 220.313 44.0815C221.618 43.8257 222.945 43.7043 224.275 43.7192ZM222.79 56.5742C223.427 56.5848 224.045 56.3553 224.52 55.9315C224.755 55.7224 224.942 55.4646 225.067 55.1759C225.192 54.8873 225.253 54.5748 225.245 54.2603L225.245 52.9982L223.959 52.9982C223.199 52.9593 222.446 53.1508 221.797 53.5475C221.591 53.7056 221.427 53.9118 221.319 54.1482C221.211 54.3845 221.162 54.6437 221.178 54.9031C221.169 55.1178 221.204 55.332 221.28 55.5329C221.356 55.7338 221.473 55.9171 221.622 56.0717C221.95 56.3402 222.367 56.4776 222.79 56.4574M224.275 41.9078C222.824 41.8966 221.375 42.0297 219.951 42.3051C218.695 42.5552 217.48 42.9759 216.339 43.5556L214.879 44.3152L215.545 45.811L217.111 49.3988C216.832 49.5403 216.562 49.7004 216.304 49.8779C215.47 50.4761 214.799 51.2744 214.354 52.1994C213.909 53.1245 213.704 54.1466 213.757 55.1719C213.724 56.4777 214.017 57.771 214.61 58.9349C215.177 59.9756 216.039 60.8254 217.087 61.3774C218.122 61.889 219.264 62.1493 220.418 62.137C221.336 62.1549 222.252 62.0488 223.141 61.8215C223.926 61.627 224.668 61.286 225.326 60.8164L225.326 60.8982L225.817 61.8565L232.56 61.8565L232.56 49.504C232.616 48.4484 232.435 47.3938 232.03 46.4172C231.626 45.4406 231.008 44.5667 230.223 43.8594C228.555 42.4936 226.439 41.7978 224.286 41.9078L224.275 41.9078Z" fill="rgb(255,255,255)" fill-rule="nonzero" />
	<path id="Vector" d="M241.045 37.0928L233.717 37.0928L233.717 61.0383L241.045 61.0383L241.045 37.0928Z" fill="rgb(52,52,52)" fill-rule="evenodd" />
	<path id="Vector" d="M240.168 37.9688L240.168 60.173L234.594 60.173L234.594 37.9688L240.168 37.9688ZM241.921 36.2158L232.841 36.2158L232.841 61.926L241.91 61.926L241.91 36.2158L241.921 36.2158Z" fill="rgb(255,255,255)" fill-rule="nonzero" />
	<path id="Vector" d="M251.831 61.3189C250.224 61.3439 248.63 61.0252 247.157 60.384C245.729 59.7437 244.533 58.6785 243.733 57.3338C242.86 55.7647 242.435 53.9859 242.506 52.1918C242.442 50.3984 242.819 48.6168 243.604 47.003C244.297 45.6413 245.407 44.536 246.771 43.8477C248.169 43.1675 249.704 42.8196 251.259 42.831C252.789 42.7947 254.307 43.1064 255.7 43.7425C256.978 44.3362 258.037 45.3175 258.726 46.5472C259.457 47.9482 259.815 49.5138 259.766 51.0933L259.766 54.5174L258.715 54.5174L258.715 59.8581L258.247 60.1035C257.365 60.5567 256.426 60.887 255.454 61.0852C254.257 61.2795 253.044 61.3578 251.831 61.3189ZM250.09 54.5174C250.196 54.731 250.343 54.9216 250.522 55.0784C251.089 55.5212 251.804 55.7303 252.521 55.6627C253.381 55.672 254.24 55.5818 255.08 55.3939C255.921 55.1816 256.739 54.888 257.523 54.5174L250.09 54.5174ZM252.825 49.2585C252.724 49.0284 252.557 48.8332 252.345 48.6976C252.103 48.5395 251.817 48.4618 251.527 48.4755C251.336 48.4679 251.145 48.4992 250.967 48.5675C250.788 48.6358 250.625 48.7397 250.487 48.8729C250.355 48.9855 250.255 49.1305 250.195 49.2936L252.825 49.2585Z" fill="rgb(52,52,52)" fill-rule="nonzero" />
	<path id="Vector" d="M251.259 43.7191C252.658 43.6838 254.048 43.9634 255.325 44.5372C256.44 45.0597 257.364 45.9178 257.967 46.9913C258.624 48.2598 258.942 49.677 258.89 51.1049L258.89 53.5825L248.921 53.5825C248.931 53.975 249.02 54.3615 249.183 54.7189C249.345 55.0764 249.578 55.3973 249.868 55.6626C250.595 56.2587 251.524 56.5517 252.462 56.4807C253.394 56.4927 254.325 56.3907 255.232 56.1768C256.13 55.9595 257.003 55.6501 257.838 55.2536L257.838 59.2621C257.032 59.6813 256.17 59.9843 255.279 60.1619C254.122 60.3701 252.948 60.4641 251.773 60.4424C250.274 60.4715 248.787 60.1765 247.414 59.5776C246.147 59.0117 245.086 58.069 244.375 56.878C243.59 55.4492 243.21 53.8327 243.277 52.2035C243.211 50.5529 243.552 48.9114 244.27 47.4237C244.88 46.2216 245.859 45.2468 247.063 44.6423C248.366 44.0119 249.8 43.6995 251.247 43.7308M249.026 50.0882L253.818 50.0882C253.815 49.6398 253.716 49.1973 253.526 48.791C253.358 48.4116 253.081 48.0904 252.731 47.8678C252.349 47.6221 251.9 47.4997 251.446 47.5172C250.835 47.5042 250.243 47.7307 249.798 48.1483C249.304 48.6735 249.028 49.3671 249.026 50.0882ZM251.247 41.9778C249.524 41.9498 247.819 42.3261 246.268 43.0764C244.762 43.8497 243.536 45.0759 242.762 46.5823C241.924 48.3258 241.523 50.247 241.594 52.1801C241.525 54.1349 241.994 56.0713 242.949 57.7779C243.839 59.2734 245.17 60.4572 246.759 61.167C248.362 61.8654 250.095 62.2121 251.843 62.1837C253.132 62.2054 254.42 62.0997 255.688 61.8681C256.739 61.6603 257.754 61.3022 258.703 60.8047L259.649 60.3139L259.649 55.3237L260.701 55.3237L260.701 51.0933C260.746 49.3647 260.343 47.6538 259.533 46.1265C258.752 44.7388 257.56 43.6279 256.12 42.9478C254.606 42.2601 252.956 41.9206 251.294 41.9544L251.247 41.9778Z" fill="rgb(255,255,255)" fill-rule="nonzero" />
</svg>
